<?xml version="1.0" encoding="utf-8"?>
<!-- Generator: Adobe Illustrator 26.0.0, SVG Export Plug-In . SVG Version: 6.00 Build 0)  -->
<svg version="1.1" id="Capa_1" xmlns="http://www.w3.org/2000/svg" xmlns:xlink="http://www.w3.org/1999/xlink" x="0px" y="0px"
	 viewBox="0 0 167.35 200" style="enable-background:new 0 0 167.35 200;" xml:space="preserve">
<style type="text/css">
	.st0{fill:#F2E9E4;}
	.st1{fill:#FFFFFF;}
	.st2{fill:#FF5B3B;}
	.st3{fill:#0A58CA;}
	.st4{fill:#0E2959;}
	.st5{fill:#5A1B0E;}
</style>
<g>
	<rect x="4.32" y="5.17" class="st0" width="158.69" height="190.5"/>
	<path class="st1" d="M130.5,80.72c0,0,5.28-4.7,7.54-2.85c2.26,1.85,3.79,16.35-7.77,21.81L130.5,80.72z"/>
	<path class="st1" d="M35.75,80.72c0,0-5.28-4.7-7.54-2.85c-2.26,1.85-3.79,16.35,7.77,21.81L35.75,80.72z"/>
	<path class="st1" d="M41.77,39.89l16.69-9.33h54.68l13.37,9.33c0,0,15.56,85.32-18.92,95.89c0,0-5.63,9.11,1.25,20.73
		c0,0-5.41,7.57-24.72,7.57c0,0-18.09-0.02-25.65-7.57c0,0,5.61-8.98,1.91-20.64C60.36,135.87,23.71,130.42,41.77,39.89z"/>
	<path class="st2" d="M47.36,161.97c0,0,8.74-1.17,11.1-4.88c0,0,23.32,15.72,51.59,0c0,0,1.35,2.88,12.37,3.97
		c0,0-11.92,12.63-37.17,12.63C60,173.69,47.36,161.97,47.36,161.97z"/>
	<path class="st3" d="M4.34,195.66c0,0-1.99-35.31,41.09-35.31c0,0,10.5,13.35,38.44,13.35c27.95,0,38.04-13.35,38.04-13.35
		s41.09-2.72,41.09,35.31H4.34z"/>
	<path class="st4" d="M1.63,195.73c-0.01-0.61-0.22-15.18,10.57-26.23c7.69-7.87,18.87-11.86,33.23-11.86
		c5.44,0,9.03-0.96,10.99-2.92c2.63-2.64,2.6-7.62,2.57-13.38l-0.01-1.94c0-1.77-0.73-2.32-4.16-4.09
		c-7.62-3.94-20.37-10.53-20.37-51.55l0-0.11c0.06-1.37,1.45-33.7,4.41-43.32l5.18,1.59c-2.7,8.78-4.1,40.36-4.17,41.89
		c0.01,37.67,10.5,43.09,17.44,46.68c3.48,1.8,7.09,3.67,7.09,8.9l0.01,1.91c0.04,6.68,0.07,12.99-4.15,17.23
		c-3.07,3.08-7.78,4.52-14.83,4.52c-12.82,0-22.68,3.42-29.31,10.18c-9.21,9.38-9.08,22.24-9.08,22.37L1.63,195.73z"/>
	<path class="st4" d="M165.72,195.73l-5.42-0.12c0-0.12,0.13-12.98-9.08-22.36c-6.63-6.75-16.49-10.18-29.31-10.18
		c-7.05,0-11.76-1.44-14.83-4.52c-4.22-4.24-4.18-10.55-4.15-17.23l0.01-1.91c0-5.24,3.6-7.1,7.08-8.9
		c6.94-3.59,17.43-9.01,17.44-46.68c-0.07-1.54-1.47-33.11-4.17-41.89l5.18-1.59c2.96,9.62,4.35,41.94,4.41,43.32l0,0.11
		c0,41.02-12.75,47.61-20.37,51.55c-3.42,1.77-4.15,2.32-4.15,4.09l-0.01,1.94c-0.03,5.76-0.06,10.74,2.57,13.38
		c1.96,1.97,5.55,2.92,10.99,2.92c14.36,0,25.54,3.99,33.23,11.86C165.94,180.55,165.73,195.11,165.72,195.73z"/>
	<path class="st4" d="M83.69,113.99l-10.1-7.38l2.45-7.19l1.2-11.33L75,82.76c-13.55-9.52-24.51-0.23-24.98,0.17l-2.14-2.45
		c0.13-0.12,13.53-11.6,29.4-0.09l0.37,0.27l2.91,6.94l-1.39,12.69l-1.73,5.1l6.22,4.54l7.18-5.41l1.96,2.6L83.69,113.99z"/>
	<path class="st4" d="M57.06,81.92c0,2.78,2.25,5.04,5.04,5.04c2.78,0,5.04-2.26,5.04-5.04c0-2.78-2.26-5.04-5.04-5.04
		C59.32,76.89,57.06,79.14,57.06,81.92z"/>
	<path class="st4" d="M117.37,83.03c-13.78-9.99-25.23-0.2-25.34-0.09l-2.15-2.44c0.13-0.12,13.53-11.6,29.4-0.09L117.37,83.03z"/>
	<path class="st4" d="M99.06,81.92c0,2.78,2.25,5.04,5.04,5.04c2.78,0,5.04-2.26,5.04-5.04c0-2.78-2.25-5.04-5.04-5.04
		C101.32,76.89,99.06,79.14,99.06,81.92z"/>
	<path class="st4" d="M95.69,119.27c0,0-5.15,4.88-12.02,4.88c-6.87,0-11.96-4.88-11.96-4.88H95.69z"/>
	<path class="st4" d="M83.87,175.33c-27.38,0-39.54-12.78-40.04-13.33l2.39-2.21l-1.19,1.11l1.19-1.11
		c0.12,0.12,11.8,12.29,37.66,12.29c25.89,0,38.1-12.19,38.22-12.31l2.33,2.27C123.9,162.57,111.23,175.33,83.87,175.33z"/>
	<path class="st0" d="M105.2,80.08c0,0.66,0.53,1.19,1.19,1.19c0.66,0,1.19-0.53,1.19-1.19c0-0.66-0.53-0.77-1.19-0.77
		C105.73,79.31,105.2,79.43,105.2,80.08z"/>
	<path class="st0" d="M62.93,80.08c0,0.66,0.53,1.19,1.19,1.19c0.66,0,1.19-0.53,1.19-1.19c0-0.66-0.53-0.77-1.19-0.77
		C63.46,79.31,62.93,79.43,62.93,80.08z"/>
	<path class="st4" d="M83.64,165.63c-17.39,0-24.88-6.33-25.19-6.6l2.13-2.46c0.07,0.06,7.01,5.81,23.06,5.81
		c16.25,0,24.06-5.81,24.14-5.87l1.97,2.59C109.4,159.36,100.98,165.63,83.64,165.63z"/>
	<polygon class="st4" points="102.51,134.61 83.7,146.44 65.93,134.61 74.97,137.32 76.66,136.21 82.1,138.13 83.92,137.18 
		86.07,138.04 90.67,136.42 92.96,137.63 	"/>
	<path class="st4" d="M35.47,100.63c-3.62-0.51-6.63-3.83-8.48-9.33c-1.72-5.11-2.16-11.74,0.07-13.99
		c0.88-0.89,2.01-1.36,3.26-1.36c0.01,0,0.02,0,0.03,0c3.13,0.02,6.12,3,6.45,3.34l-2.33,2.27l1.17-1.13l-1.16,1.14
		c-0.89-0.91-2.81-2.36-4.14-2.36c0,0,0,0-0.01,0c-0.39,0-0.67,0.12-0.95,0.4c-0.74,0.74-1.04,5.47,0.7,10.66
		c1.42,4.22,3.55,6.83,5.86,7.15L35.47,100.63z"/>
	<path class="st4" d="M131.37,100.65l-0.46-3.22c2.31-0.33,4.44-2.93,5.86-7.15c1.74-5.19,1.44-9.92,0.7-10.66
		c-0.28-0.28-0.56-0.4-0.95-0.4c0,0-0.01,0-0.01,0c-1.4,0.01-3.39,1.59-4.14,2.36l-2.33-2.27c0.33-0.34,3.32-3.33,6.45-3.34
		c1.24-0.02,2.39,0.46,3.28,1.36c2.23,2.25,1.79,8.88,0.07,13.99C138,96.82,134.99,100.14,131.37,100.65z"/>
	<path class="st4" d="M95.54,72.77c1.88-1.77,4.09-2.73,6.37-3.38c2.29-0.61,4.7-0.8,7.12-0.52c2.41,0.28,6.54,0.67,8.75,2.03
		c2.17,1.37,2.46,3.69,3.4,6.25l-0.21,0.26c-1.7-1.54-3.67-2.71-5.74-3.54c-2.08-0.82-4.26-1.3-6.45-1.53
		c-2.19-0.27-4.4-0.3-6.6-0.16c-2.19,0.16-4.39,0.45-6.54,0.92L95.54,72.77z"/>
	<path class="st4" d="M72.04,72.03c-1.87-1.75-4.08-2.72-6.35-3.38c-2.28-0.62-4.69-0.84-7.11-0.6c-2.41,0.24-6.53,0.4-8.73,1.7
		c-2.17,1.31-2.48,3.74-3.43,6.22l0.21,0.25c1.71-1.48,3.68-2.59,5.75-3.37c2.08-0.78,4.26-1.21,6.45-1.41
		c2.19-0.23,4.4-0.24,6.6-0.07c2.19,0.19,4.39,0.49,6.53,0.99L72.04,72.03z"/>
	<rect x="79.71" y="87.33" class="st4" width="2.12" height="1.08"/>
	<rect x="82.8" y="87.33" class="st4" width="2.88" height="1.08"/>
	<rect x="42.22" y="47.27" class="st4" width="2.88" height="1.08"/>
	<rect x="41.77" y="50.61" class="st4" width="2.88" height="1.08"/>
	<rect x="41.4" y="53.95" class="st4" width="2.88" height="1.08"/>
	<rect x="40.78" y="57.38" class="st4" width="2.88" height="1.08"/>
	<rect x="39.97" y="60.64" class="st4" width="2.88" height="1.08"/>
	<rect x="39.34" y="63.83" class="st4" width="2.88" height="1.08"/>
	<rect x="122.18" y="47.27" class="st4" width="2.88" height="1.08"/>
	<rect x="122.64" y="50.61" class="st4" width="2.88" height="1.08"/>
	<rect x="123" y="53.95" class="st4" width="2.88" height="1.08"/>
	<rect x="123.62" y="57.38" class="st4" width="2.88" height="1.08"/>
	<rect x="124.07" y="61.09" class="st4" width="2.88" height="1.08"/>
	<rect x="124.44" y="64.66" class="st4" width="2.88" height="1.08"/>
	<g>
		
			<rect x="126.52" y="100.67" transform="matrix(0.1369 -0.9906 0.9906 0.1369 8.5185 214.0034)" class="st4" width="1.08" height="2.88"/>
		
			<rect x="125.62" y="103.92" transform="matrix(0.1369 -0.9906 0.9906 0.1369 4.5201 215.9122)" class="st4" width="1.08" height="2.88"/>
		
			<rect x="124.8" y="107.18" transform="matrix(0.1369 -0.9906 0.9906 0.1369 0.585 217.9174)" class="st4" width="1.08" height="2.88"/>
		
			<rect x="123.71" y="110.5" transform="matrix(0.1369 -0.9906 0.9906 0.1369 -3.6378 219.7007)" class="st4" width="1.08" height="2.88"/>
		
			<rect x="122.76" y="114.11" transform="matrix(0.1369 -0.9906 0.9906 0.1369 -8.0375 221.8637)" class="st4" width="1.08" height="2.88"/>
		
			<rect x="125.08" y="101.57" transform="matrix(0.1369 -0.9906 0.9906 0.1369 6.3869 213.3459)" class="st4" width="1.08" height="2.88"/>
		
			<rect x="124.17" y="104.82" transform="matrix(0.1369 -0.9906 0.9906 0.1369 2.3843 215.2498)" class="st4" width="1.08" height="2.88"/>
		
			<rect x="123.36" y="108.08" transform="matrix(0.1369 -0.9906 0.9906 0.1369 -1.5466 217.2598)" class="st4" width="1.08" height="2.88"/>
		
			<rect x="122.27" y="111.39" transform="matrix(0.1369 -0.9906 0.9906 0.1369 -5.773 219.0387)" class="st4" width="1.08" height="2.88"/>
		
			<rect x="121.32" y="115" transform="matrix(0.1369 -0.9906 0.9906 0.1369 -10.1653 221.2106)" class="st4" width="1.08" height="2.88"/>
	</g>
	<g>
		
			<rect x="121.33" y="118.8" transform="matrix(0.5888 -0.8083 0.8083 0.5888 -47.0743 147.9437)" class="st4" width="1.08" height="2.88"/>
		
			<rect x="119" y="121.24" transform="matrix(0.5888 -0.8083 0.8083 0.5888 -50.0019 147.0598)" class="st4" width="1.08" height="2.88"/>
		
			<rect x="116.74" y="123.72" transform="matrix(0.5888 -0.8082 0.8082 0.5888 -52.9426 146.2521)" class="st4" width="1.08" height="2.88"/>
		
			<rect x="114.21" y="126.13" transform="matrix(0.5888 -0.8083 0.8083 0.5888 -55.9256 145.2088)" class="st4" width="1.08" height="2.88"/>
		
			<rect x="111.67" y="128.86" transform="matrix(0.5888 -0.8083 0.8083 0.5888 -59.1769 144.2675)" class="st4" width="1.08" height="2.88"/>
		
			<rect x="119.64" y="118.91" transform="matrix(0.5888 -0.8083 0.8083 0.5888 -47.8568 146.6177)" class="st4" width="1.08" height="2.88"/>
		
			<rect x="117.3" y="121.34" transform="matrix(0.5888 -0.8083 0.8083 0.5888 -50.7844 145.7339)" class="st4" width="1.08" height="2.88"/>
		
			<rect x="115.04" y="123.83" transform="matrix(0.5888 -0.8083 0.8083 0.5888 -53.7246 144.9297)" class="st4" width="1.08" height="2.88"/>
		
			<rect x="112.52" y="126.24" transform="matrix(0.5888 -0.8083 0.8083 0.5888 -56.7081 143.8828)" class="st4" width="1.08" height="2.88"/>
		
			<rect x="109.97" y="128.96" transform="matrix(0.5888 -0.8083 0.8083 0.5888 -59.9591 142.945)" class="st4" width="1.08" height="2.88"/>
	</g>
	<g>
		
			<rect x="108.98" y="131.16" transform="matrix(0.8876 -0.4605 0.4605 0.8876 -48.7586 65.3364)" class="st4" width="1.08" height="2.88"/>
		
			<rect x="105.81" y="132.3" transform="matrix(0.8876 -0.4605 0.4605 0.8876 -49.6396 64.0024)" class="st4" width="1.08" height="2.88"/>
		
			<rect x="102.67" y="133.51" transform="matrix(0.8876 -0.4605 0.4605 0.8876 -50.5522 62.6963)" class="st4" width="1.08" height="2.88"/>
		
			<rect x="99.34" y="134.54" transform="matrix(0.8876 -0.4605 0.4605 0.8876 -51.401 61.2786)" class="st4" width="1.08" height="2.88"/>
		
			<rect x="95.85" y="135.84" transform="matrix(0.8876 -0.4606 0.4606 0.8876 -52.3954 59.8176)" class="st4" width="1.08" height="2.88"/>
		
			<rect x="107.42" y="130.5" transform="matrix(0.8876 -0.4605 0.4605 0.8876 -48.6308 64.5445)" class="st4" width="1.08" height="2.88"/>
		
			<rect x="104.24" y="131.64" transform="matrix(0.8876 -0.4605 0.4605 0.8876 -49.5119 63.2105)" class="st4" width="1.08" height="2.88"/>
		
			<rect x="101.11" y="132.85" transform="matrix(0.8876 -0.4605 0.4605 0.8876 -50.4234 61.9019)" class="st4" width="1.08" height="2.88"/>
		
			<rect x="97.78" y="133.88" transform="matrix(0.8876 -0.4605 0.4605 0.8876 -51.271 60.4817)" class="st4" width="1.08" height="2.88"/>
		
			<rect x="94.28" y="135.18" transform="matrix(0.8876 -0.4605 0.4605 0.8876 -52.2654 59.0208)" class="st4" width="1.08" height="2.88"/>
	</g>
	<g>
		
			<rect x="38.93" y="101.86" transform="matrix(0.9906 -0.1369 0.1369 0.9906 -13.6404 6.4915)" class="st4" width="2.88" height="1.08"/>
		
			<rect x="39.83" y="105.11" transform="matrix(0.9906 -0.1369 0.1369 0.9906 -14.0733 6.6441)" class="st4" width="2.88" height="1.08"/>
		
			<rect x="40.65" y="108.37" transform="matrix(0.9906 -0.1369 0.1369 0.9906 -14.5155 6.7884)" class="st4" width="2.88" height="1.08"/>
		
			<rect x="41.74" y="111.68" transform="matrix(0.9906 -0.1369 0.1369 0.9906 -14.9549 6.9663)" class="st4" width="2.88" height="1.08"/>
		
			<rect x="42.69" y="115.29" transform="matrix(0.9906 -0.1369 0.1369 0.9906 -15.4396 7.131)" class="st4" width="2.88" height="1.08"/>
		
			<rect x="40.37" y="102.75" transform="matrix(0.9906 -0.1369 0.1369 0.9906 -13.7459 6.6956)" class="st4" width="2.88" height="1.08"/>
		
			<rect x="41.28" y="106" transform="matrix(0.9906 -0.1369 0.1369 0.9906 -14.1821 6.85)" class="st4" width="2.88" height="1.08"/>
		
			<rect x="42.09" y="109.26" transform="matrix(0.9906 -0.1369 0.1369 0.9906 -14.6203 6.9922)" class="st4" width="2.88" height="1.08"/>
		
			<rect x="43.18" y="112.58" transform="matrix(0.9906 -0.1369 0.1369 0.9906 -15.0643 7.1726)" class="st4" width="2.88" height="1.08"/>
		
			<rect x="44.14" y="116.18" transform="matrix(0.9906 -0.1369 0.1369 0.9906 -15.5522 7.339)" class="st4" width="2.88" height="1.08"/>
	</g>
	<g>
		
			<rect x="42.37" y="105.42" transform="matrix(0.9906 -0.1369 0.1369 0.9906 -14.0949 6.9959)" class="st4" width="2.88" height="1.08"/>
		
			<rect x="43.27" y="108.66" transform="matrix(0.9906 -0.1369 0.1369 0.9906 -14.5277 7.1483)" class="st4" width="2.88" height="1.08"/>
		
			<rect x="44.09" y="111.92" transform="matrix(0.9906 -0.1369 0.1369 0.9906 -14.97 7.2928)" class="st4" width="2.88" height="1.08"/>
		
			<rect x="45.18" y="115.24" transform="matrix(0.9906 -0.1369 0.1369 0.9906 -15.4093 7.4706)" class="st4" width="2.88" height="1.08"/>
		
			<rect x="46.13" y="118.85" transform="matrix(0.9906 -0.1369 0.1369 0.9906 -15.894 7.6352)" class="st4" width="2.88" height="1.08"/>
		
			<rect x="43.81" y="106.31" transform="matrix(0.9906 -0.1369 0.1369 0.9906 -14.2003 7.1999)" class="st4" width="2.88" height="1.08"/>
		
			<rect x="44.72" y="109.56" transform="matrix(0.9906 -0.1369 0.1369 0.9906 -14.6365 7.3543)" class="st4" width="2.88" height="1.08"/>
		
			<rect x="45.53" y="112.82" transform="matrix(0.9906 -0.1369 0.1369 0.9906 -15.0747 7.4964)" class="st4" width="2.88" height="1.08"/>
		
			<rect x="46.62" y="116.13" transform="matrix(0.9906 -0.1369 0.1369 0.9906 -15.5187 7.6769)" class="st4" width="2.88" height="1.08"/>
		
			<rect x="47.58" y="119.74" transform="matrix(0.9906 -0.1369 0.1369 0.9906 -16.0067 7.8434)" class="st4" width="2.88" height="1.08"/>
	</g>
	<g>
		
			<rect x="40.24" y="95.59" transform="matrix(0.9906 -0.1369 0.1369 0.9906 -12.7663 6.6097)" class="st4" width="2.88" height="1.08"/>
		
			<rect x="41.14" y="98.84" transform="matrix(0.9906 -0.1369 0.1369 0.9906 -13.2029 6.7644)" class="st4" width="2.88" height="1.08"/>
		
			<rect x="41.96" y="102.1" transform="matrix(0.9906 -0.1369 0.1369 0.9906 -13.6416 6.9068)" class="st4" width="2.88" height="1.08"/>
		
			<rect x="43.05" y="105.41" transform="matrix(0.9906 -0.1369 0.1369 0.9906 -14.0851 7.087)" class="st4" width="2.88" height="1.08"/>
		
			<rect x="44" y="109.02" transform="matrix(0.9906 -0.1369 0.1369 0.9906 -14.5728 7.2534)" class="st4" width="2.88" height="1.08"/>
		
			<rect x="41.68" y="96.49" transform="matrix(0.9906 -0.1369 0.1369 0.9906 -12.8755 6.816)" class="st4" width="2.88" height="1.08"/>
		
			<rect x="42.59" y="99.73" transform="matrix(0.9906 -0.1369 0.1369 0.9906 -13.3145 6.972)" class="st4" width="2.88" height="1.08"/>
		
			<rect x="43.4" y="102.99" transform="matrix(0.9906 -0.1369 0.1369 0.9906 -13.7504 7.1128)" class="st4" width="2.88" height="1.08"/>
		
			<rect x="44.49" y="106.31" transform="matrix(0.9906 -0.1369 0.1369 0.9906 -14.1939 7.2929)" class="st4" width="2.88" height="1.08"/>
		
			<rect x="45.45" y="109.92" transform="matrix(0.9906 -0.1369 0.1369 0.9906 -14.6781 7.4573)" class="st4" width="2.88" height="1.08"/>
	</g>
	<g>
		
			<rect x="123.08" y="104.52" transform="matrix(0.1369 -0.9906 0.9906 0.1369 1.739 213.9095)" class="st4" width="1.08" height="2.88"/>
		
			<rect x="122.18" y="107.77" transform="matrix(0.1369 -0.9906 0.9906 0.1369 -2.2556 215.8224)" class="st4" width="1.08" height="2.88"/>
		
			<rect x="121.36" y="111.03" transform="matrix(0.1369 -0.9906 0.9906 0.1369 -6.1945 217.8232)" class="st4" width="1.08" height="2.88"/>
		
			<rect x="120.27" y="114.34" transform="matrix(0.1369 -0.9906 0.9906 0.1369 -10.4135 219.6109)" class="st4" width="1.08" height="2.88"/>
		
			<rect x="119.32" y="117.95" transform="matrix(0.1369 -0.9906 0.9906 0.1369 -14.8096 221.7784)" class="st4" width="1.08" height="2.88"/>
		
			<rect x="121.64" y="105.41" transform="matrix(0.1369 -0.9906 0.9906 0.1369 -0.3888 213.2561)" class="st4" width="1.08" height="2.88"/>
		
			<rect x="120.73" y="108.66" transform="matrix(0.1369 -0.9906 0.9906 0.1369 -4.3877 215.1642)" class="st4" width="1.08" height="2.88"/>
		
			<rect x="119.92" y="111.92" transform="matrix(0.1369 -0.9906 0.9906 0.1369 -8.3223 217.17)" class="st4" width="1.08" height="2.88"/>
		
			<rect x="118.83" y="115.24" transform="matrix(0.1369 -0.9906 0.9906 0.1369 -12.5451 218.9534)" class="st4" width="1.08" height="2.88"/>
		
			<rect x="117.88" y="118.84" transform="matrix(0.1369 -0.9906 0.9906 0.1369 -16.9446 221.1162)" class="st4" width="1.08" height="2.88"/>
	</g>
	<g>
		
			<rect x="124.78" y="95.43" transform="matrix(0.1369 -0.9906 0.9906 0.1369 12.2144 207.7502)" class="st4" width="1.08" height="2.88"/>
		
			<rect x="123.88" y="98.68" transform="matrix(0.1369 -0.9906 0.9906 0.1369 8.2117 209.6543)" class="st4" width="1.08" height="2.88"/>
		
			<rect x="123.06" y="101.94" transform="matrix(0.1369 -0.9906 0.9906 0.1369 4.2809 211.6641)" class="st4" width="1.08" height="2.88"/>
		
			<rect x="121.97" y="105.25" transform="matrix(0.1369 -0.9906 0.9906 0.1369 0.055 213.4438)" class="st4" width="1.08" height="2.88"/>
		
			<rect x="121.02" y="108.86" transform="matrix(0.1369 -0.9906 0.9906 0.1369 -4.3379 215.6149)" class="st4" width="1.08" height="2.88"/>
		
			<rect x="123.34" y="96.32" transform="matrix(0.1369 -0.9906 0.9906 0.1369 10.0791 207.0887)" class="st4" width="1.08" height="2.88"/>
		
			<rect x="122.43" y="99.57" transform="matrix(0.1369 -0.9906 0.9906 0.1369 6.084 209.0008)" class="st4" width="1.08" height="2.88"/>
		
			<rect x="121.62" y="102.83" transform="matrix(0.1369 -0.9906 0.9906 0.1369 2.1462 211.0029)" class="st4" width="1.08" height="2.88"/>
		
			<rect x="120.53" y="106.15" transform="matrix(0.1369 -0.9906 0.9906 0.1369 -2.0734 212.7898)" class="st4" width="1.08" height="2.88"/>
		
			<rect x="119.57" y="109.75" transform="matrix(0.1369 -0.9906 0.9906 0.1369 -6.473 214.953)" class="st4" width="1.08" height="2.88"/>
	</g>
	<g>
		
			<rect x="44.12" y="119.99" transform="matrix(0.8083 -0.5888 0.5888 0.8083 -62.2315 49.9336)" class="st4" width="2.88" height="1.08"/>
		
			<rect x="46.45" y="122.42" transform="matrix(0.8083 -0.5888 0.5888 0.8083 -63.2203 51.7771)" class="st4" width="2.88" height="1.08"/>
		
			<rect x="48.71" y="124.91" transform="matrix(0.8083 -0.5888 0.5888 0.8083 -64.2518 53.5852)" class="st4" width="2.88" height="1.08"/>
		
			<rect x="51.24" y="127.32" transform="matrix(0.8083 -0.5888 0.5888 0.8083 -65.1848 55.5338)" class="st4" width="2.88" height="1.08"/>
		
			<rect x="53.79" y="130.04" transform="matrix(0.8083 -0.5888 0.5888 0.8083 -66.3029 57.5567)" class="st4" width="2.88" height="1.08"/>
		
			<rect x="45.82" y="120.09" transform="matrix(0.8083 -0.5888 0.5888 0.8083 -61.9691 50.9517)" class="st4" width="2.88" height="1.08"/>
		
			<rect x="48.15" y="122.53" transform="matrix(0.8083 -0.5888 0.5888 0.8083 -62.956 52.792)" class="st4" width="2.88" height="1.08"/>
		
			<rect x="50.41" y="125.01" transform="matrix(0.8083 -0.5888 0.5888 0.8083 -63.9893 54.6033)" class="st4" width="2.88" height="1.08"/>
		
			<rect x="52.93" y="127.42" transform="matrix(0.8083 -0.5888 0.5888 0.8083 -64.9224 56.5519)" class="st4" width="2.88" height="1.08"/>
		
			<rect x="55.48" y="130.15" transform="matrix(0.8083 -0.5888 0.5888 0.8083 -66.0404 58.5748)" class="st4" width="2.88" height="1.08"/>
	</g>
	<g>
		
			<rect x="57.3" y="132.48" transform="matrix(0.4093 -0.9124 0.9124 0.4093 -86.6667 132.1706)" class="st4" width="2.88" height="1.08"/>
		
			<rect x="60.54" y="133.43" transform="matrix(0.4093 -0.9124 0.9124 0.4093 -85.6288 135.6862)" class="st4" width="2.88" height="1.08"/>
		
			<rect x="63.73" y="134.47" transform="matrix(0.4093 -0.9124 0.9124 0.4093 -84.6865 139.2162)" class="st4" width="2.88" height="1.08"/>
		
			<rect x="67.12" y="135.3" transform="matrix(0.4093 -0.9124 0.9124 0.4093 -83.448 142.8003)" class="st4" width="2.88" height="1.08"/>
		
			<rect x="70.69" y="136.41" transform="matrix(0.4093 -0.9124 0.9124 0.4093 -82.3495 146.7008)" class="st4" width="2.88" height="1.08"/>
		
			<rect x="58.83" y="131.73" transform="matrix(0.4093 -0.9124 0.9124 0.4093 -85.0832 133.1183)" class="st4" width="2.88" height="1.08"/>
		
			<rect x="62.06" y="132.68" transform="matrix(0.4093 -0.9124 0.9124 0.4093 -84.0453 136.6338)" class="st4" width="2.88" height="1.08"/>
		
			<rect x="65.26" y="133.72" transform="matrix(0.4093 -0.9124 0.9124 0.4093 -83.103 140.1637)" class="st4" width="2.88" height="1.08"/>
		
			<rect x="68.65" y="134.56" transform="matrix(0.4093 -0.9124 0.9124 0.4093 -81.8644 143.7479)" class="st4" width="2.88" height="1.08"/>
		
			<rect x="72.21" y="135.66" transform="matrix(0.4093 -0.9124 0.9124 0.4093 -80.766 147.6485)" class="st4" width="2.88" height="1.08"/>
	</g>
	<g>
		
			<rect x="66.72" y="117.07" transform="matrix(0.9948 -0.1014 0.1014 0.9948 -11.6693 7.4304)" class="st4" width="1.08" height="2.88"/>
		
			<rect x="70" y="116.28" transform="matrix(0.9948 -0.1014 0.1014 0.9948 -11.5725 7.7588)" class="st4" width="1.08" height="2.88"/>
		
			<rect x="73.28" y="115.58" transform="matrix(0.9948 -0.1014 0.1014 0.9948 -11.4884 8.0915)" class="st4" width="1.08" height="2.88"/>
		
			<rect x="76.64" y="114.61" transform="matrix(0.9948 -0.1014 0.1014 0.9948 -11.3733 8.4268)" class="st4" width="1.08" height="2.88"/>
		
			<rect x="67.66" y="115.66" transform="matrix(0.9948 -0.1014 0.1014 0.9948 -11.5256 7.522)" class="st4" width="1.08" height="2.88"/>
		
			<rect x="70.94" y="114.87" transform="matrix(0.9948 -0.1014 0.1014 0.9948 -11.4284 7.8503)" class="st4" width="1.08" height="2.88"/>
		
			<rect x="74.23" y="114.17" transform="matrix(0.9948 -0.1014 0.1014 0.9948 -11.3368 8.1772)" class="st4" width="1.08" height="2.88"/>
		
			<rect x="77.58" y="113.2" transform="matrix(0.9948 -0.1014 0.1014 0.9948 -11.2213 8.512)" class="st4" width="1.08" height="2.88"/>
	</g>
	<g>
		
			<rect x="99" y="117.93" transform="matrix(0.1014 -0.9948 0.9948 0.1014 -27.6132 206.3778)" class="st4" width="2.88" height="1.08"/>
		
			<rect x="95.72" y="117.14" transform="matrix(0.1014 -0.9948 0.9948 0.1014 -29.7763 202.4073)" class="st4" width="2.88" height="1.08"/>
		
			<rect x="92.43" y="116.45" transform="matrix(0.1014 -0.9948 0.9948 0.1014 -32.0376 198.5041)" class="st4" width="2.88" height="1.08"/>
		
			<rect x="89.08" y="115.48" transform="matrix(0.1014 -0.9948 0.9948 0.1014 -34.0853 194.2991)" class="st4" width="2.88" height="1.08"/>
		
			<rect x="98.05" y="116.52" transform="matrix(0.1014 -0.9948 0.9948 0.1014 -27.063 204.1653)" class="st4" width="2.88" height="1.08"/>
		
			<rect x="94.77" y="115.73" transform="matrix(0.1014 -0.9948 0.9948 0.1014 -29.2254 200.1957)" class="st4" width="2.88" height="1.08"/>
		
			<rect x="91.48" y="115.03" transform="matrix(0.1014 -0.9948 0.9948 0.1014 -31.4813 196.3007)" class="st4" width="2.88" height="1.08"/>
		
			<rect x="88.13" y="114.07" transform="matrix(0.1014 -0.9948 0.9948 0.1014 -33.5292 192.0957)" class="st4" width="2.88" height="1.08"/>
	</g>
	<g>
		
			<rect x="66.16" y="137.06" transform="matrix(0.5218 -0.8531 0.8531 0.5218 -85.0544 123.471)" class="st4" width="2.88" height="1.08"/>
		
			<rect x="69.25" y="138.42" transform="matrix(0.5218 -0.8531 0.8531 0.5218 -84.7377 126.7539)" class="st4" width="2.88" height="1.08"/>
		
			<rect x="72.29" y="139.85" transform="matrix(0.5218 -0.8531 0.8531 0.5218 -84.5079 130.0332)" class="st4" width="2.88" height="1.08"/>
		
			<rect x="75.54" y="141.11" transform="matrix(0.5218 -0.8531 0.8531 0.5218 -84.0257 133.411)" class="st4" width="2.88" height="1.08"/>
		
			<rect x="78.94" y="142.66" transform="matrix(0.5218 -0.8531 0.8531 0.5218 -83.7214 137.0448)" class="st4" width="2.88" height="1.08"/>
		
			<rect x="67.77" y="136.51" transform="matrix(0.5218 -0.8531 0.8531 0.5218 -83.8169 124.5739)" class="st4" width="2.88" height="1.08"/>
		
			<rect x="70.86" y="137.87" transform="matrix(0.5218 -0.8531 0.8531 0.5218 -83.5006 127.8613)" class="st4" width="2.88" height="1.08"/>
		
			<rect x="73.9" y="139.3" transform="matrix(0.5218 -0.8531 0.8531 0.5218 -83.2705 131.1359)" class="st4" width="2.88" height="1.08"/>
		
			<rect x="77.15" y="140.56" transform="matrix(0.5218 -0.8531 0.8531 0.5218 -82.7885 134.5184)" class="st4" width="2.88" height="1.08"/>
		
			<rect x="80.54" y="142.11" transform="matrix(0.5218 -0.8531 0.8531 0.5218 -82.4843 138.1523)" class="st4" width="2.88" height="1.08"/>
	</g>
	<g>
		
			<rect x="99.53" y="136.36" transform="matrix(0.8531 -0.5218 0.5218 0.8531 -57.2019 72.468)" class="st4" width="1.08" height="2.88"/>
		
			<rect x="96.45" y="137.72" transform="matrix(0.8531 -0.5218 0.5218 0.8531 -58.3625 71.0525)" class="st4" width="1.08" height="2.88"/>
		
			<rect x="93.41" y="139.16" transform="matrix(0.8531 -0.5218 0.5218 0.8531 -59.5598 69.6817)" class="st4" width="1.08" height="2.88"/>
		
			<rect x="90.15" y="140.42" transform="matrix(0.8531 -0.5218 0.5218 0.8531 -60.6926 68.1643)" class="st4" width="1.08" height="2.88"/>
		
			<rect x="86.76" y="141.96" transform="matrix(0.8531 -0.5218 0.5218 0.8531 -61.9992 66.6218)" class="st4" width="1.08" height="2.88"/>
		
			<rect x="97.93" y="135.81" transform="matrix(0.8531 -0.5218 0.5218 0.8531 -57.1491 71.5444)" class="st4" width="1.08" height="2.88"/>
		
			<rect x="94.84" y="137.17" transform="matrix(0.8531 -0.5218 0.5218 0.8531 -58.3137 70.1382)" class="st4" width="1.08" height="2.88"/>
		
			<rect x="91.8" y="138.61" transform="matrix(0.8531 -0.5218 0.5218 0.8531 -59.5069 68.7583)" class="st4" width="1.08" height="2.88"/>
		
			<rect x="88.55" y="139.87" transform="matrix(0.8531 -0.5218 0.5218 0.8531 -60.6439 67.2498)" class="st4" width="1.08" height="2.88"/>
		
			<rect x="85.15" y="141.41" transform="matrix(0.8531 -0.5218 0.5218 0.8531 -61.9484 65.7029)" class="st4" width="1.08" height="2.88"/>
	</g>
	<rect x="86.8" y="87.33" class="st4" width="1.16" height="1.08"/>
	<path class="st4" d="M45.87,100.7h-0.04c-3.81,0-6.9-3.1-6.9-6.9L38.2,78.37c0-3.88,3.09-6.98,6.9-6.98h26.67
		c2.38,0,4.56,0.92,5.82,2.47c0.74,0.91,1.53,2.48,1.05,4.76l-3.25,15.5c-0.61,2.47-1.35,5.48-5.78,5.48L45.87,100.7z M45.1,74.65
		c-2.01,0-3.65,1.64-3.65,3.65l0.73,15.42c0,2.08,1.62,3.71,3.62,3.73l23.72-1.08c1.7,0,2.01-0.2,2.69-2.96l3.24-15.45
		c0.17-0.84,0.05-1.51-0.39-2.04c-0.63-0.77-1.92-1.27-3.29-1.27H45.1z"/>
	<path class="st4" d="M121.44,100.7l-0.07,0L97.6,99.61c0,0,0,0,0,0c-4.36,0-5.1-3.01-5.69-5.43l-3.26-15.55
		c-0.48-2.29,0.31-3.85,1.05-4.76c1.26-1.55,3.43-2.47,5.82-2.47h26.67c3.8,0,6.9,3.1,6.9,6.9l-0.73,15.58
		C128.34,97.6,125.25,100.7,121.44,100.7z M95.51,74.65c-1.37,0-2.67,0.5-3.29,1.27c-0.44,0.54-0.56,1.21-0.39,2.05l3.25,15.5
		c0.67,2.7,0.98,2.9,2.6,2.9l23.8,1.08c2-0.02,3.61-1.65,3.61-3.65l0.73-15.58c0-1.94-1.64-3.57-3.65-3.57H95.51z"/>
	<path class="st4" d="M76.77,83.29c-0.02-2.31,0.93-3.88,2.15-5.04c1.24-1.13,2.89-1.78,4.62-1.81c1.73-0.05,3.53,0.55,4.87,1.72
		c1.33,1.19,2.25,2.87,2.09,5.14l-0.32,0.43c-1.99-1.23-4.22-1.97-6.51-1.87c-1.14,0.01-2.27,0.22-3.38,0.54
		c-1.1,0.33-2.2,0.77-3.21,1.33L76.77,83.29z"/>
	<path class="st4" d="M134.03,195.12H95.07v-11.29h38.96V195.12z M98.32,191.87h32.46v-4.78H98.32V191.87z"/>
	<g>
		<g>
			<path class="st4" d="M56.5,37.9c0,4.06-5.1,7.35-11.4,7.35s-11.4-3.29-11.4-7.35c0-4.06,5.1-7.35,11.4-7.35S56.5,33.84,56.5,37.9
				z"/>
			<path class="st4" d="M40.86,50.9c-0.82,4.45,0.92,8.64-2.67,7.77c-3.58-0.87-5.82-5.18-5-9.64c0.82-4.45,4.39-7.35,7.97-6.48
				C44.75,43.43,41.68,46.45,40.86,50.9z"/>
			<path class="st4" d="M37.92,63.01c-0.41,3.77,0.91,7.04-1.55,6.72c-2.47-0.32-4.14-3.64-3.73-7.41c0.41-3.77,2.74-6.56,5.2-6.24
				C40.31,56.4,38.33,59.24,37.92,63.01z"/>
			<path class="st4" d="M37.28,73.89c-0.36,2.93,0.71,5.52-1.32,5.21c-2.03-0.31-3.39-2.94-3.03-5.87c0.36-2.93,2.3-5.06,4.33-4.75
				C39.29,68.79,37.64,70.96,37.28,73.89z"/>
			<path class="st4" d="M126.9,50.9c0.82,4.45-0.92,8.64,2.67,7.77c3.58-0.87,5.82-5.18,5-9.64c-0.82-4.45-4.39-7.35-7.97-6.48
				C123.02,43.43,126.08,46.45,126.9,50.9z"/>
			<path class="st4" d="M126.9,50.9c0.82,4.45-0.92,8.64,2.67,7.77c3.58-0.87,5.82-5.18,5-9.64c-0.82-4.45-4.39-7.35-7.97-6.48
				C123.02,43.43,126.08,46.45,126.9,50.9z"/>
			<path class="st4" d="M129.84,63.01c0.41,3.77-0.91,7.04,1.55,6.72c2.47-0.32,4.14-3.64,3.73-7.41c-0.41-3.77-2.74-6.56-5.2-6.24
				C127.45,56.4,129.43,59.24,129.84,63.01z"/>
			<path class="st4" d="M130.49,73.89c0.36,2.93-0.71,5.52,1.32,5.21c2.03-0.31,3.39-2.94,3.03-5.87c-0.36-2.93-2.3-5.06-4.33-4.75
				C128.47,68.79,130.13,70.96,130.49,73.89z"/>
			<path class="st4" d="M68.53,29.76c0,4.81-5.25,8.71-11.72,8.71c-6.47,0-11.72-3.9-11.72-8.71c0-4.81,5.25-8.71,11.72-8.71
				C63.28,21.05,68.53,24.95,68.53,29.76z"/>
			<path class="st4" d="M92.6,35.07c0,5.62-5.84,10.18-13.03,10.18c-7.2,0-16.09-2.71-16.09-8.33s8.89-12.03,16.09-12.03
				C86.76,24.89,92.6,29.45,92.6,35.07z"/>
			<path class="st4" d="M105.26,26.99c0,7.12-9.92,12.9-22.16,12.9c-12.24,0-22.16-5.77-22.16-12.9c0-7.12,9.92-12.9,22.16-12.9
				C95.34,14.09,105.26,19.86,105.26,26.99z"/>
			<path class="st4" d="M116.03,31.66c0,5.86-7.09,10.61-15.83,10.61c-8.75,0-15.83-4.75-15.83-10.61c0-5.86,7.09-10.61,15.83-10.61
				C108.94,21.05,116.03,25.8,116.03,31.66z"/>
			<path class="st4" d="M129.97,36.92c0,3.52-4.82,6.37-10.77,6.37c-5.95,0-10.77-2.85-10.77-6.37c0-3.52,4.82-6.37,10.77-6.37
				C125.14,30.55,129.97,33.4,129.97,36.92z"/>
		</g>
		<path class="st4" d="M125.49,31.66c0,3.58-5.24,6.48-11.7,6.48c-6.46,0-11.7-2.9-11.7-6.48c0-3.58,5.24-6.48,11.7-6.48
			C120.25,25.18,125.49,28.08,125.49,31.66z"/>
	</g>
	<path class="st5" d="M167.35,200H0V-0.19h167.35V200z M8.67,191.33h150V8.48h-150V191.33z"/>
	<polyline class="st4" points="69.68,118.43 77.3,117.5 82.45,116.54 82.45,115.18 78.29,113.06 67.14,116.94 	"/>
	<polyline class="st4" points="98.01,118.43 90.39,117.5 85.25,116.54 85.25,115.18 89.63,113.06 100.56,116.94 	"/>
	<polygon class="st4" points="86.16,125.72 86.13,125.78 86.14,125.74 83.67,126.64 81.08,125.76 81.08,125.75 79.95,125.37 
		78.95,132.09 81.61,129.32 83.7,135.59 85.61,129.45 88.28,132.09 87.26,125.32 	"/>
</g>
</svg>
