<?xml version="1.0" encoding="utf-8"?>
<!-- Generator: Adobe Illustrator 15.0.0, SVG Export Plug-In . SVG Version: 6.00 Build 0)  -->
<!DOCTYPE svg PUBLIC "-//W3C//DTD SVG 1.1//EN" "http://www.w3.org/Graphics/SVG/1.1/DTD/svg11.dtd">
<svg version="1.1" id="Capa_1" xmlns="http://www.w3.org/2000/svg" xmlns:xlink="http://www.w3.org/1999/xlink" x="0px" y="0px"
	 width="400.768px" height="400.383px" viewBox="0 0 400.768 400.383" enable-background="new 0 0 400.768 400.383"
	 xml:space="preserve">
<g>
	<path d="M49.777-462.505H31.609v163.504h18.168v59.589H-87.565v-59.589h17.438v-127.17l-61.769,186.759h-53.773l-63.585-184.942
		v125.354h17.44v59.589H-350.99v-59.589h18.167v-163.504h-18.167v-59.589h166.412l37.789,113.363l36.334-113.363H49.777V-462.505z"
		/>
</g>
<g>
	<path d="M-31.611-299.001h14.534v59.589h-142.431v-59.589h21.801l-5.813-29.067h-49.415l-5.814,29.067h21.8v59.589h-124.263
		v-59.589h14.534l61.406-223.093h132.257L-31.611-299.001z M-184.942-366.583h33.427l-14.896-72.305h-3.634L-184.942-366.583z"/>
</g>
<g id="Capa_1_1_" display="none">
	<path display="inline" opacity="0.39" enable-background="new    " d="M303.544,118.601h-43.207l-46.71,126.896
		c-11.678,33.088-21.021,61.894-28.026,88.36h-0.775c-7.01-27.246-15.57-56.051-26.473-88.36l-44.764-126.896H70.382L57.841,298.436
		h31.693l1.864-29.973c2.336-39.703,4.282-83.299,5.063-115.998h0.775c7.396,31.14,17.52,64.617,29.976,101.984L170.03,379.4h25.69
		l46.321-127.287c13.231-36.2,23.744-69.286,33.087-99.648h0.775c0,32.308,2.338,76.682,4.281,113.271l6.229,115.22h33.476
		L303.544,118.601z"/>
	<g display="inline" opacity="0.39">
		<path d="M240.677,298.436l-39.973-101.981c-7.142-17.127-11.897-32.697-16.656-47.878h-0.952
			c-4.759,15.181-9.518,31.529-16.18,47.489L126.94,298.438l0,0l-33.31,82.521H50.803l109.451-262.355h49.491l109.448,262.355
			H274.94L240.677,298.436z"/>
	</g>
</g>
<g id="Capa_2">
	<g>
		<g>
			<path fill="#FFFFFF" d="M-71.967-341.727l-2.747-0.395l-15.303-0.985h-7.458l-15.303,0.985h-2.747l0.199-2.563h2.167
				c4.859-0.524,8.209-1.578,10.051-3.154c1.839-1.576,2.76-4.404,2.76-8.481v-97.217l-43.557,13.319v83.889
				c0,3.815,0.917,6.578,2.76,8.29c1.838,1.713,5.188,2.831,10.05,3.354h2.168v2.957l-2.746-0.394l-15.303-0.986h-7.458
				l-15.302,0.986h-2.748l0.197-2.563h2.167c4.86-0.523,8.21-1.577,10.051-3.156c1.839-1.58,2.76-4.411,2.76-8.488v-83.888
				l-43.558-13.319v97.216c0,3.813,0.93,6.574,2.796,8.286c1.863,1.708,5.256,2.826,10.184,3.35h2.195v2.958l-2.76-0.395
				l-15.374-0.985h-7.49l-15.374,0.985h-2.759l0.196-2.563h2.167c4.859-0.523,8.21-1.578,10.053-3.153
				c1.838-1.577,2.759-4.401,2.759-8.475v-95.788c0-3.81-0.921-6.569-2.759-8.279c-1.842-1.706-5.193-2.823-10.053-3.351h-2.167
				l-0.196-2.759l2.759,0.197c5.519,0.526,9.132,0.921,10.841,1.183c3.939,0.788,9.787,2.364,17.541,4.73l47.696,14.585
				l47.698-14.585c6.701-2.1,12.054-3.514,16.062-4.237c4.005-0.72,8.112-1.281,12.319-1.675h2.76l-0.196,2.563h-2.169
				c-4.863,0.527-8.212,1.576-10.051,3.153c-1.842,1.577-2.76,4.404-2.76,8.475v95.789c0,3.812,0.918,6.571,2.76,8.277
				c1.839,1.709,5.188,2.827,10.051,3.351h2.169L-71.967-341.727L-71.967-341.727L-71.967-341.727z"/>
		</g>
		<g>
			<path fill="#FFFFFF" d="M-90.496-299.321h-2.746l-15.304-1.183h-7.458l-15.303,1.183h-2.747l0.196-2.563h2.169
				c4.857-0.526,8.21-1.583,10.05-3.169c1.841-1.586,2.761-4.427,2.761-8.525v-2.774l-0.592-21.404h-61.098l-0.59,21.404v2.774
				c0,3.831,0.93,6.607,2.795,8.324c1.864,1.72,5.257,2.845,10.184,3.37h2.195v2.563h-2.759l-15.373-1.183h-7.492l-15.373,1.183
				h-2.76l0.197-2.563h2.168c4.857-0.524,8.21-1.577,10.052-3.156c1.838-1.583,2.759-4.41,2.759-8.496v-3.354
				c0-26.595,2.957-48.448,8.87-65.565c7.226-20.8,19.119-36.139,35.674-46.012c16.423,9.745,28.249,25.015,35.478,45.816
				c6.042,17.377,9.066,39.297,9.066,65.762v3.354c0,3.819,0.917,6.582,2.76,8.295c1.838,1.711,5.188,2.833,10.05,3.356h2.167v2.563
				H-90.496L-90.496-299.321z M-119.468-345.246c0-20.772-3.043-38.193-9.125-52.264c-5.291-12.093-12.366-20.704-21.228-25.834
				c-8.863,4.998-15.937,13.608-21.228,25.834c-6.085,13.938-9.125,31.36-9.125,52.264H-119.468z"/>
		</g>
	</g>
</g>
<path d="M6.1-298.506h18.017v-162.149H6.1v-59.094h158.185c30.988,0,54.646,6.667,70.985,19.999
	c16.333,13.332,24.502,34.896,24.502,64.679c0,29.789-8.169,51.347-24.502,64.679c-16.339,13.332-39.997,19.999-70.985,19.999
	h-39.276v51.888h34.591v59.094H6.1V-298.506z M137.26-401.561c13.929,0,20.899-7.685,20.899-23.061v-12.972
	c0-7.927-1.745-13.749-5.225-17.476c-3.485-3.721-8.71-5.585-15.674-5.585h-12.251v59.094H137.26z"/>
<path d="M290.762-261.212c-19.221-17.893-28.826-44.017-28.826-78.372c0-34.35,9.605-60.473,28.826-78.372
	c19.216-17.893,45.88-26.845,79.993-26.845c34.592,0,61.375,9.07,80.354,27.205c18.974,18.14,28.466,44.14,28.466,78.011
	c0,34.355-9.61,60.479-28.826,78.372c-19.221,17.898-45.886,26.845-79.993,26.845C336.642-234.367,309.978-243.313,290.762-261.212z
	 M386.43-304.092c3.479-3.721,5.225-9.548,5.225-17.476v-36.033c0-7.927-1.745-13.749-5.225-17.476
	c-3.485-3.722-8.71-5.585-15.675-5.585c-6.97,0-12.194,1.864-15.674,5.585c-3.485,3.727-5.225,9.548-5.225,17.476v36.033
	c0,7.928,1.739,13.755,5.225,17.476c3.479,3.728,8.704,5.586,15.674,5.586C377.72-298.506,382.944-300.364,386.43-304.092z"/>
<path d="M657.934-443.359c4.324,0.963,7.928,2.162,10.811,3.604v68.823c-9.854-4.082-20.421-6.125-31.709-6.125
	c-15.134,0-26.789,3.963-34.952,11.891c-8.17,7.927-12.251,19.7-12.251,35.313v31.349h32.43v59.094h-131.16v-59.094h15.854v-82.156
	h-15.854v-59.094h98.73v26.304c6.722-10.089,14.413-17.836,23.061-23.241c8.648-5.405,19.098-8.107,31.349-8.107
	C649.044-444.8,653.61-444.316,657.934-443.359z"/>
<path d="M701.08-252.925c-12.854-12.369-19.277-33.206-19.277-62.517v-55.22h-15.854v-69.094c9.126,0,15.973-2.342,20.539-7.027
	c4.56-4.684,6.846-11.108,6.846-19.277v-16.215h76.39v42.519h48.645v59.094h-48.645v59.094c0,7.928,1.74,13.755,5.226,17.476
	c3.479,3.728,8.704,5.586,15.674,5.586c9.127,0,19.098-1.081,29.907-3.243v56.571c-6.728,2.646-15.798,5.106-27.204,7.387
	c-11.413,2.28-23.005,3.424-34.772,3.424C733.088-234.367,713.929-240.55,701.08-252.925z"/>
<path d="M1041.408-298.506v59.094h-95.127v-24.502c-5.287,7.69-12.674,14.536-22.161,20.538c-9.492,6.002-21.079,9.009-34.771,9.009
	c-18.017,0-32.193-4.809-42.519-14.413c-10.332-9.605-15.494-23.18-15.494-40.718c0-45.401,38.555-68.699,115.666-69.904
	c-0.721-8.164-3.846-13.749-9.369-16.755c-5.528-3.001-14.897-4.504-28.105-4.504c-10.811,0-22.402,1.143-34.772,3.423
	c-12.375,2.286-23.725,5.349-34.051,9.188v-66.301c12.729-3.119,26.541-5.642,41.438-7.567c14.893-1.92,29.424-2.883,43.601-2.883
	c35.791,0,61.374,6.486,76.75,19.458c15.37,12.972,23.062,33.032,23.062,60.175v66.662H1041.408z M946.281-323.729
	c-10.811,0-19.16,1.441-25.043,4.324c-5.89,2.883-8.828,7.69-8.828,14.413c0,4.088,1.261,7.387,3.783,9.909s6.063,3.783,10.63,3.783
	c6.243,0,11.046-2.641,14.413-7.927c3.361-5.281,5.045-12.73,5.045-22.341V-323.729z"/>
<path d="M1038.935-239.412v-59.094h18.016v-162.149h-18.016v-59.094h215.477v93.326h-63.778v-34.231h-32.79v59.815h54.41v41.078
	h-54.41v61.256h47.203v59.094H1038.935z"/>
<path d="M1278.192-261.212c-19.222-17.893-28.826-44.017-28.826-78.372c0-34.35,9.604-60.473,28.826-78.372
	c19.216-17.893,45.88-26.845,79.993-26.845c34.592,0,61.374,9.07,80.354,27.205c18.974,18.14,28.466,44.14,28.466,78.011
	c0,34.355-9.61,60.479-28.826,78.372c-19.222,17.898-45.886,26.845-79.993,26.845
	C1324.072-234.367,1297.408-243.313,1278.192-261.212z M1373.86-304.092c3.479-3.721,5.225-9.548,5.225-17.476v-36.033
	c0-7.927-1.746-13.749-5.225-17.476c-3.485-3.722-8.71-5.585-15.675-5.585c-6.97,0-12.195,1.864-15.675,5.585
	c-3.484,3.727-5.225,9.548-5.225,17.476v36.033c0,7.928,1.74,13.755,5.225,17.476c3.479,3.728,8.705,5.586,15.675,5.586
	C1365.15-298.506,1370.375-300.364,1373.86-304.092z"/>
<path d="M1477.811-239.052v-59.454h15.854v-162.149h-15.854v-59.094h98.73v221.243h15.854v59.454H1477.811z"/>
<path d="M1587.202-239.412v-59.094h31.854v-82.156h-15.854v-59.094h98.73v141.25h15.854v59.094H1587.202z M1620.498-459.574v-60.175
	h73.507v60.175H1620.498z"/>
<path d="M1754.538-261.212c-19.222-17.893-28.826-44.017-28.826-78.372c0-34.35,9.604-60.473,28.826-78.372
	c19.216-17.893,45.88-26.845,79.993-26.845c34.592,0,61.374,9.07,80.354,27.205c18.974,18.14,28.466,44.14,28.466,78.011
	c0,34.355-9.61,60.479-28.826,78.372c-19.222,17.898-45.886,26.845-79.993,26.845
	C1800.418-234.367,1773.754-243.313,1754.538-261.212z M1850.206-304.092c3.479-3.721,5.225-9.548,5.225-17.476v-36.033
	c0-7.927-1.746-13.749-5.225-17.476c-3.485-3.722-8.71-5.585-15.675-5.585c-6.97,0-12.195,1.864-15.675,5.585
	c-3.484,3.727-5.225,9.548-5.225,17.476v36.033c0,7.928,1.74,13.755,5.225,17.476c3.479,3.728,8.705,5.586,15.675,5.586
	C1841.496-298.506,1846.721-300.364,1850.206-304.092z"/>
</svg>
